<svg xmlns="http://www.w3.org/2000/svg" width="64" height="64" viewBox="0 0 64 64">
  <g id="favicon" transform="translate(-22 -224)">
    <rect id="Rectangle_1" data-name="Rectangle 1" width="64" height="64" transform="translate(22 224)" fill="none"/>
    <path id="Path_9" data-name="Path 9" d="M40.3,53.333a3.555,3.555,0,1,1,3.555,3.555A3.555,3.555,0,0,1,40.3,53.333Zm-23.7,0a3.555,3.555,0,1,1,3.555,3.555A3.555,3.555,0,0,1,16.593,53.333Zm10.673-8.055a18.641,18.641,0,0,0-4.629-3.622,14.183,14.183,0,0,0-4.175-1.29,4.741,4.741,0,1,1-4.9-7.992,16.531,16.531,0,0,0,.681-4.343,13.394,13.394,0,0,0-.489-3.44,4.741,4.741,0,1,1,3.315,0q-.066.245-.125.5a12.923,12.923,0,0,0-.364,2.942A14.669,14.669,0,0,0,16.94,31.1c.094.435.2.861.317,1.272a4.742,4.742,0,0,1,2.892,4.366q0,.081,0,.161c.335.338.7.681,1.1,1.013a12.973,12.973,0,0,0,2.455,1.66,14.737,14.737,0,0,0,2.9,1.07,23.827,23.827,0,0,0,2.651.531,4.742,4.742,0,0,1,5.505,0,18.536,18.536,0,0,0,5.571-1.6,14.166,14.166,0,0,0,3.489-2.61,18.609,18.609,0,0,0-4.611-3.6,14.16,14.16,0,0,0-4.153-1.287,4.741,4.741,0,1,1-.3-7.487,18.517,18.517,0,0,0,5.571-1.6,14.155,14.155,0,0,0,3.489-2.61,18.6,18.6,0,0,0-4.612-3.6,14.146,14.146,0,0,0-4.153-1.287,4.741,4.741,0,1,1,1.689-3.629q0,.092,0,.183c.329.33.687.665,1.072.991a13.067,13.067,0,0,0,2.457,1.66,14.712,14.712,0,0,0,2.9,1.07,24.139,24.139,0,0,0,2.67.534,4.741,4.741,0,1,1-.295,7.487c-.441.071-.9.161-1.368.275a12.911,12.911,0,0,0-2.786,1.012,14.741,14.741,0,0,0-2.572,1.717,24.177,24.177,0,0,0-2.04,1.886c.318.318.663.639,1.033.952a13.012,13.012,0,0,0,2.457,1.659,14.783,14.783,0,0,0,2.9,1.071,24.138,24.138,0,0,0,2.67.534,4.741,4.741,0,1,1-.3,7.486c-.441.071-.9.161-1.368.275a13.025,13.025,0,0,0-2.786,1.012,14.687,14.687,0,0,0-2.572,1.718,23.947,23.947,0,0,0-2.083,1.931,4.74,4.74,0,0,1-9.467-.027ZM56.889,28.445A3.556,3.556,0,1,1,60.445,32,3.557,3.557,0,0,1,56.889,28.445ZM0,28.445A3.556,3.556,0,1,1,3.555,32,3.556,3.556,0,0,1,0,28.445ZM40.3,3.555a3.555,3.555,0,1,1,3.555,3.556A3.555,3.555,0,0,1,40.3,3.555Zm-23.7,0a3.555,3.555,0,1,1,3.555,3.556A3.555,3.555,0,0,1,16.593,3.555Z" transform="translate(22 227.556)" fill="#4185f4"/>
    <rect id="Rectangle_2" data-name="Rectangle 2" width="5" height="17" transform="translate(35 248)" fill="#4185f4"/>
    <rect id="Rectangle_3" data-name="Rectangle 3" width="5" height="17" transform="matrix(0.454, 0.891, -0.891, 0.454, 66.939, 246.414)" fill="#4185f4"/>
    <rect id="Rectangle_4" data-name="Rectangle 4" width="5" height="17" transform="matrix(0.454, 0.891, -0.891, 0.454, 68.939, 262.414)" fill="#4185f4"/>
    <rect id="Rectangle_5" data-name="Rectangle 5" width="5" height="17" transform="matrix(-0.454, 0.891, -0.891, -0.454, 53.791, 270.131)" fill="#4185f4"/>
    <rect id="Rectangle_6" data-name="Rectangle 6" width="5" height="17" transform="matrix(-0.454, 0.891, -0.891, -0.454, 71.417, 262.131)" fill="#4185f4"/>
  </g>
</svg>
